<?xml version="1.0" standalone="no"?>
<!DOCTYPE svg PUBLIC "-//W3C//DTD SVG 20010904//EN"
 "http://www.w3.org/TR/2001/REC-SVG-20010904/DTD/svg10.dtd">
<svg version="1.0" xmlns="http://www.w3.org/2000/svg"
 width="260.000000pt" height="260.000000pt" viewBox="0 0 260.000000 260.000000"
 preserveAspectRatio="xMidYMid meet">
<metadata>
Created by potrace 1.14, written by Peter Selinger 2001-2017
</metadata>
<g transform="translate(0.000000,260.000000) scale(0.100000,-0.100000)"
fill="#000000" stroke="none">
<path d="M1245 2576 c-9 -12 -757 -446 -769 -446 -3 0 -21 -11 -41 -24 l-36
-25 -2 -125 c-1 -79 2 -126 8 -126 6 0 19 7 30 16 20 15 20 13 25 -472 4 -377
8 -488 18 -492 9 -3 12 101 12 496 l0 500 373 216 c206 119 377 216 380 216 4
0 7 -227 7 -505 0 -442 2 -505 15 -505 13 0 15 58 15 458 0 251 3 541 7 645 6
180 5 187 -13 187 -10 0 -24 -6 -29 -14z m-317 -327 c2 -29 -4 -43 -38 -82
-47 -53 -78 -60 -120 -27 -37 29 -74 25 -104 -11 -14 -17 -26 -35 -26 -40 0
-5 -4 -9 -10 -9 -15 0 -12 67 5 99 8 16 22 31 30 35 28 11 81 7 119 -9 l36
-15 20 39 c35 70 83 80 88 20z"/>
<path d="M1338 2175 l-3 -125 61 0 c48 0 67 5 89 21 23 19 26 27 20 58 -3 20
-6 50 -5 66 1 74 -33 105 -119 105 l-40 0 -3 -125z m107 45 c0 -9 -11 -16 -27
-18 -23 -3 -28 1 -28 18 0 17 5 21 28 18 16 -2 27 -9 27 -18z m4 -79 c23 -15
5 -41 -29 -41 -22 0 -30 5 -30 18 0 32 28 42 59 23z"/>
<path d="M1613 2285 c-101 -43 -75 -234 32 -234 57 -1 97 51 97 126 0 81 -65
135 -129 108z m67 -64 c24 -45 3 -121 -32 -121 -24 0 -48 34 -48 67 0 47 16
73 45 73 14 0 29 -8 35 -19z"/>
<path d="M2020 2271 c0 -26 3 -30 28 -28 l27 2 0 -98 0 -97 28 0 27 0 0 101 0
102 30 -6 c28 -6 30 -4 30 23 l0 30 -85 0 -85 0 0 -29z"/>
<path d="M2250 2173 l0 -123 28 0 c26 0 27 1 24 50 l-4 50 36 0 36 0 0 -50 c0
-48 1 -50 28 -50 l27 0 -2 122 -2 121 -25 2 c-24 1 -26 -2 -26 -47 l0 -48 -35
0 -35 0 0 48 c0 45 -2 48 -25 48 l-25 0 0 -123z"/>
<path d="M1812 2268 c-50 -55 -51 -135 -2 -188 37 -39 78 -40 121 -2 25 23 33
38 36 78 6 56 -13 106 -46 124 -34 18 -86 12 -109 -12z m98 -47 c24 -46 0
-121 -40 -121 -42 0 -61 88 -28 127 16 19 56 15 68 -6z"/>
<path d="M705 1930 c-19 -36 -19 -42 1 -66 14 -17 15 -17 10 -1 -5 16 -1 18
39 11 30 -4 50 -2 60 6 37 31 -1 80 -62 80 -26 0 -36 -6 -48 -30z"/>
<path d="M1340 1889 c-1 -2 -2 -59 -3 -127 l-2 -122 61 0 c48 0 67 5 89 21 23
19 26 27 21 58 -4 20 -6 54 -6 77 1 57 -32 86 -105 92 -30 2 -55 3 -55 1z
m105 -79 c0 -9 -11 -16 -27 -18 -23 -3 -28 1 -28 18 0 17 5 21 28 18 16 -2 27
-9 27 -18z m4 -79 c23 -15 5 -41 -29 -41 -25 0 -30 4 -30 25 0 19 5 25 23 25
12 0 28 -4 36 -9z"/>
<path d="M1568 1788 c3 -95 5 -105 28 -125 35 -31 87 -31 119 2 23 22 25 31
25 125 l0 101 -26 -3 c-26 -3 -26 -4 -28 -92 -1 -93 -13 -117 -50 -103 -13 5
-16 23 -16 102 l0 95 -27 0 -28 0 3 -102z"/>
<path d="M1810 1765 l0 -125 58 0 c77 0 103 25 110 105 8 100 -32 145 -128
145 l-40 0 0 -125z m104 59 c19 -19 22 -104 4 -122 -7 -7 -22 -12 -35 -12 -22
0 -23 4 -23 68 0 38 3 72 7 75 11 12 31 8 47 -9z"/>
<path d="M2040 1889 c-1 -2 -2 -59 -3 -127 l-2 -122 58 0 c68 0 101 25 113 84
18 98 -21 156 -110 164 -31 2 -56 3 -56 1z m104 -71 c18 -26 21 -80 6 -109 -6
-11 -21 -19 -35 -19 -24 0 -25 2 -25 68 0 38 3 72 7 75 12 13 32 7 47 -15z"/>
<path d="M2250 1884 c0 -2 16 -32 35 -67 28 -52 35 -74 35 -120 0 -55 1 -57
28 -57 27 0 27 1 24 55 -3 48 1 63 32 120 20 36 36 67 36 69 0 6 -60 -7 -60
-13 0 -3 -9 -17 -19 -30 l-19 -25 -18 35 c-14 25 -26 34 -46 35 -16 1 -28 0
-28 -2z"/>
<path d="M675 1751 c-11 -5 -32 -21 -48 -36 l-27 -28 2 -201 3 -201 60 -3 60
-3 -3 116 -4 115 25 0 c13 0 30 7 37 15 7 8 16 15 21 15 5 0 9 -61 9 -135 0
-74 3 -135 8 -135 4 0 24 5 46 11 l39 11 -7 116 c-4 64 -10 128 -13 142 -5 22
-1 20 43 -20 28 -25 48 -52 46 -60 -2 -9 8 -22 22 -30 16 -8 26 -22 26 -36 0
-17 4 -22 15 -18 11 5 15 -1 15 -25 0 -21 4 -29 14 -25 31 12 47 95 26 135 -7
13 -22 19 -48 20 -29 2 -31 3 -10 6 20 3 41 24 79 75 l53 70 -25 19 c-13 10
-27 19 -31 19 -3 0 -27 -23 -53 -52 l-46 -52 -39 45 c-34 39 -41 43 -58 32
-17 -10 -23 -9 -33 4 -11 13 -10 17 6 29 19 14 19 15 -5 39 -14 13 -38 27 -54
31 l-29 7 6 -56 c7 -53 6 -56 -24 -81 -47 -40 -62 -22 -57 66 4 72 0 78 -47
59z m30 -411 c0 -31 -3 -35 -25 -35 -22 0 -25 5 -28 38 -3 37 -2 38 25 35 25
-3 28 -7 28 -38z"/>
<path d="M1314 1515 c-15 -23 -15 -28 -3 -36 8 -5 20 -9 27 -9 6 0 12 -9 12
-21 0 -15 4 -19 16 -15 12 4 15 0 12 -17 -2 -12 -9 -21 -15 -20 -7 2 -15 -14
-19 -35 -3 -20 -15 -53 -25 -72 -9 -19 -25 -59 -35 -89 l-17 -54 -28 34 c-23
28 -30 32 -41 21 -11 -11 -7 -23 19 -70 26 -47 36 -57 56 -55 24 1 25 0 16
-30 -19 -67 -1 -328 25 -353 9 -9 195 -38 202 -31 1 1 -2 58 -7 127 -12 143
-30 218 -59 245 -27 24 -26 29 15 82 46 60 46 93 0 148 -34 42 -34 43 -25 101
22 131 10 163 -62 171 -42 5 -48 3 -64 -22z m132 -346 l-14 -34 -1 36 c-1 39
7 55 21 41 5 -5 3 -24 -6 -43z"/>
<path d="M1937 1273 c-14 -13 -7 -63 8 -63 8 0 15 -7 15 -15 0 -10 10 -15 30
-15 24 0 30 4 30 23 0 12 -13 34 -29 50 -30 27 -42 32 -54 20z"/>
<path d="M2055 1258 c-14 -41 -10 -53 18 -56 27 -3 28 -1 25 30 -3 34 -34 53
-43 26z"/>
<path d="M947 1248 c-17 -13 -72 -182 -108 -334 -22 -94 -19 -104 29 -104 19
0 21 -4 16 -25 l-6 -25 83 1 c136 2 224 13 222 26 -28 141 -27 150 5 199 l30
47 -56 114 -57 113 -70 0 c-41 0 -78 -5 -88 -12z"/>
<path d="M550 975 c0 -31 3 -35 25 -35 22 0 25 4 25 35 0 31 -3 35 -25 35 -22
0 -25 -4 -25 -35z"/>
<path d="M1454 335 c-12 -29 -20 -35 -43 -35 -23 0 -34 -8 -50 -36 -15 -26
-27 -34 -43 -32 -24 3 -36 -17 -14 -25 23 -9 55 4 62 25 5 16 8 18 15 7 7 -11
9 -9 9 8 0 16 7 22 27 25 17 2 32 12 39 26 8 17 13 20 17 10 3 -7 6 4 6 25 1
46 -6 47 -25 2z"/>
<path d="M1027 123 c-4 -3 -7 -10 -7 -14 0 -13 56 -39 85 -39 20 0 25 5 25 24
0 18 -7 25 -31 30 -41 8 -64 8 -72 -1z"/>
<path d="M840 95 c0 -17 56 -55 83 -55 12 0 17 8 17 29 0 24 -5 29 -31 35 -50
10 -69 7 -69 -9z"/>
</g>
</svg>
